{"title":"Gang.Related.S01E05.AVI.HDTV.DivX.NLsub.{Th3Sp3cialist}","uid":10815363,"size":435636718,"categoryP":"video","categoryS":"hd___tv_shows","magnet":"?xt=urn:btih:3c321e954199505cd58862167ca7e8b3607caa04&amp;dn=Gang.Related.S01E05.AVI.HDTV.DivX.NLsub.%7BTh3Sp3cialist%7D&amp;tr=udp%3A%2F%2Ftracker.openbittorrent.com%3A80&amp;tr=udp%3A%2F%2Fopen.demonii.com%3A1337&amp;tr=udp%3A%2F%2Ftracker.coppersurfer.tk%3A6969&amp;tr=udp%3A%2F%2Fexodus.desync.com%3A6969","seeders":1,"leechers":0,"uploader":"HOLLANDmovies","files":-1,"time":1408456596,"description":"General\nComplete name                  : Gang.Related.S01E05.AVI.HDTV.DivX.NLsub.{Th3Sp3cialist}.Episode.avi\nFormat                         : AVI\nFormat/Info                    : Audio Video Interleave\nFile size                      : 412 MiB\nDuration                       : 43mn 59s\nOverall bit rate               : 1 308 Kbps\n\nVideo\nID                             : 0\nOriginal Source                : Gang Related S01E05 1080p HDTV NL Subs - BBT.mkv\nFormat                         : xvid\nCodec ID                       : xvid\nDuration                       : 43mn 59s\nBit rate                       : 1 168 Kbps\nWidth                          : 640 pixels\nHeight                         : 360 pixels\nDisplay aspect ratio           : 16:9\nFrame rate                     : 23.976 fps\nBits/(Pixel*Frame)             : 0.212\nStream size                    : 368 MiB (89%)\n\nAudio\nID                             : 1\nFormat                         : MPEG Audio\nFormat version                 : Version 1\nFormat profile                 : Layer 3\nMode                           : Joint stereo\nMode extension                 : MS Stereo\nCodec ID                       : 55\nCodec ID/Hint                  : MP3\nDuration                       : 43mn 59s\nBit rate mode                  : Constant\nBit rate                       : 128 Kbps\nChannel(s)                     : 2 channels\nSampling rate                  : 44.1 KHz\nCompression mode               : Lossy\nStream size                    : 40.3 MiB (10%)\nAlignment                      : Aligned on interleaves\nInterleave, duration           : 26 ms (0.63 video frame)\n\n\n &lt;a href=&quot;\nhttp://bayimg.com/HAPhEAaFo&quot; rel=&quot;nofollow&quot; target=&quot;_NEW&quot;&gt;\nhttp://bayimg.com/HAPhEAaFo&lt;/a&gt; &lt;a href=&quot;\nhttp://bayimg.com/hAphfAaFO&quot; rel=&quot;nofollow&quot; target=&quot;_NEW&quot;&gt;\nhttp://bayimg.com/hAphfAaFO&lt;/a&gt; &lt;a href=&quot;\nhttp://bayimg.com/hAphgAafo&quot; rel=&quot;nofollow&quot; target=&quot;_NEW&quot;&gt;\nhttp://bayimg.com/hAphgAafo&lt;/a&gt;","torrent":{"xt":"urn:btih:3c321e954199505cd58862167ca7e8b3607caa04","amp;dn":"Gang.Related.S01E05.AVI.HDTV.DivX.NLsub.%7BTh3Sp3cialist%7D","amp;tr":["udp%3A%2F%2Ftracker.openbittorrent.com%3A80","udp%3A%2F%2Fopen.demonii.com%3A1337","udp%3A%2F%2Ftracker.coppersurfer.tk%3A6969","udp%3A%2F%2Fexodus.desync.com%3A6969"],"infoHash":"3c321e954199505cd58862167ca7e8b3607caa04","infoHashBuffer":{"type":"Buffer","data":[60,50,30,149,65,153,80,92,213,136,98,22,124,167,232,179,96,124,170,4]},"announce":[],"urlList":[]}}